<svg xmlns="http://www.w3.org/2000/svg" width="500mm" height="200mm" viewBox="0 0 500 200"><defs><linearGradient id="a"><stop offset="0" stop-color="red" stop-opacity=".2"/><stop offset=".3" stop-color="#f60" stop-opacity=".5"/><stop offset=".5" stop-color="#ff0" stop-opacity=".5"/><stop offset=".6" stop-color="#0f0" stop-opacity=".6"/><stop offset=".7" stop-color="#0ff" stop-opacity=".5"/><stop offset=".8" stop-color="#00f" stop-opacity=".5"/><stop offset="1" stop-color="purple" stop-opacity=".2"/></linearGradient><linearGradient id="b" x1="48" x2="439.7" y1="93.9" y2="98.3" gradientTransform="translate(-53 -12)scale(1.23)" gradientUnits="userSpaceOnUse" href="#a"/><path id="c" d="M216 189h1422v424H216z"/></defs><path fill="url(#b)" d="m8 43 16-12q6-6 14-9l10-2 5 1 5 7q5 8 6 18l6 24 7 24 3 11q4 12 11 21l10 10 13 9a171 171 0 0 0 38 15l35 7 16 1 13-1q15 0 25-11 7-10 9-21 8-28 12-57l6-24q5-17 13-31l7-8q6-6 13-6l12 2 7 3 7 4 4 2 17 16 3 5 3 5 3 13 2 22 2 41 1 7q4 17 11 31l10 13q9 9 20 15l17 8 7 1h7q6 0 13-3l11-8 6-5 9-10 7-11 4-13 3-24-4-2-3 24-4 13q-6 12-16 21l-5 5-12 8-12 3h-7c-9-2-5-1-14-5l-4-1-19-14-10-13q-8-15-11-31l-2-8-2-40-1-22-3-13-3-5-4-6-10-10q-11-9-24-16l-8-3-12-2q-8 2-12 6l-7 9q-9 16-13 31l-5 25q-5 29-12 56-3 11-10 21-10 11-25 12h-12l-16-1a219 219 0 0 1-68-19l-13-9q-5-4-9-10-8-9-11-20-7-18-11-36l-5-24-7-17-3-6-9-5-4-1q-5-1-11 2l-14 8L4 41Z"/><text xml:space="preserve" fill="#666" font-size="192" style="text-align:start;white-space:pre;shape-inside:url(#c)" transform="matrix(.38 0 0 .38 -42 -35)"><tspan x="216" y="363"><tspan fill="#f9f9f9">cool sites</tspan></tspan></text><text xml:space="preserve" fill="#666" font-size="192" style="text-align:start;white-space:pre;shape-inside:url(#d)" transform="matrix(.26 0 0 .26 66 60)"><tspan x="216" y="363"><tspan fill="#f9f9f9">and data</tspan></tspan></text><text xml:space="preserve" x="269" y="210" fill="#f9f9f9" stroke-width=".2" font-size="39" style="text-align:start" transform="scale(1.3 .77)"><tspan x="269" y="210">yes !</tspan></text></svg>